<!DOCTYPE svg PUBLIC "-//W3C//DTD SVG 20010904//EN" "http://www.w3.org/TR/2001/REC-SVG-20010904/DTD/svg10.dtd">
<svg version="1.0" xmlns="http://www.w3.org/2000/svg" width="196px" height="80px" viewBox="0 0 1960 800" preserveAspectRatio="xMidYMid meet">
<g id="layer1" fill="#cb4c17" stroke="none">
 <path d="M834 726 c-14 -36 0 -51 51 -54 27 -2 55 -8 62 -14 10 -8 13 -56 13 -189 l0 -178 -41 -3 c-45 -3 -67 -24 -56 -52 6 -14 20 -16 89 -14 l83 3 0 223 0 224 -37 34 c-34 31 -43 34 -98 34 -44 0 -62 -4 -66 -14z"/>
 <path d="M495 588 c-3 -8 -4 -92 -3 -188 l3 -175 33 -3 c26 -3 35 1 39 16 5 20 6 19 40 -4 65 -44 163 -22 163 36 0 32 -16 48 -33 31 -14 -14 -92 -14 -117 -1 -34 18 -43 52 -49 175 l-6 120 -33 3 c-20 2 -34 -2 -37 -10z"/>
 <path d="M1326 591 c-21 -33 -125 -356 -117 -364 4 -4 21 -7 37 -5 28 3 31 9 74 136 25 72 47 132 50 132 3 0 25 -60 50 -133 43 -125 48 -132 74 -135 16 -2 33 1 38 6 7 7 -10 67 -47 174 -32 89 -62 171 -67 181 -9 18 -82 25 -92 8z"/>
 <path d="M971 166 c-7 -8 -11 -30 -9 -48 3 -30 6 -33 38 -33 35 0 35 0 35 45 0 41 -2 45 -26 48 -14 2 -31 -4 -38 -12z"/>
 </g>
<g id="layer2" fill="#020202" stroke="none">
 <path d="M211 701 c-47 -13 -64 -52 -70 -158 l-6 -98 -30 -9 c-16 -5 -36 -10 -43 -12 -8 -3 -12 -16 -10 -36 2 -27 8 -33 34 -39 50 -10 54 -16 54 -87 0 -140 26 -175 128 -176 l67 -1 0 35 c0 31 -3 35 -30 38 -49 6 -55 17 -55 102 0 64 -4 82 -21 104 -21 26 -21 27 -3 48 15 16 20 40 22 109 2 50 9 92 15 98 7 5 26 11 42 13 27 3 30 7 30 38 l0 35 -50 2 c-27 1 -61 -2 -74 -6z"/>
 <path d="M1614 696 c-3 -8 -4 -25 -2 -38 2 -19 10 -24 41 -26 47 -4 57 -25 57 -126 0 -60 4 -76 20 -91 19 -17 19 -18 0 -43 -16 -19 -20 -40 -20 -93 0 -96 -10 -117 -57 -121 -36 -3 -38 -5 -38 -38 0 -34 1 -35 45 -38 59 -5 117 13 132 41 7 12 15 63 18 114 3 51 9 95 13 99 4 4 24 10 44 13 35 6 38 9 38 41 0 31 -3 35 -35 41 -50 10 -60 31 -60 121 0 93 -16 131 -61 147 -47 16 -128 14 -135 -3z"/>
 </g>
<g id="layer3" fill="#fffffe" stroke="none">
 <path d="M0 400 l0 -400 980 0 980 0 0 400 0 400 -980 0 -980 0 0 -400z m987 296 l28 -24 3 -216 3 -216 -70 0 c-55 0 -71 3 -71 14 0 11 14 16 48 18 l47 3 3 184 c2 178 2 185 -20 208 -16 17 -32 23 -65 23 -32 0 -43 4 -43 15 0 11 13 15 54 15 44 0 61 -5 83 -24z m-667 -26 c0 -14 -7 -20 -23 -20 -50 0 -62 -21 -67 -125 -5 -88 -8 -98 -30 -115 l-25 -19 28 -25 c25 -23 27 -31 27 -106 0 -89 17 -120 65 -120 18 0 25 -5 25 -20 0 -17 -6 -20 -42 -19 -98 2 -116 27 -117 156 -1 65 -3 73 -27 92 -15 12 -35 21 -45 21 -12 0 -19 7 -19 20 0 13 7 20 19 20 10 0 30 9 45 21 24 19 26 27 27 97 1 135 18 159 117 161 36 1 42 -2 42 -19z m1451 -9 c15 -19 19 -40 19 -108 0 -80 2 -86 29 -114 16 -16 39 -29 50 -29 14 0 21 -6 21 -20 0 -14 -7 -20 -24 -20 -13 0 -34 -8 -47 -19 -20 -16 -24 -30 -29 -114 -6 -118 -14 -129 -100 -135 -56 -4 -60 -3 -60 17 0 16 6 21 28 21 49 0 65 30 72 131 4 72 9 92 23 100 22 13 22 31 -2 46 -16 10 -20 27 -22 101 -4 102 -21 132 -71 132 -22 0 -28 5 -28 21 0 20 4 21 61 17 49 -4 66 -9 80 -27z m-1221 -168 c1 -117 12 -162 50 -196 24 -21 40 -27 78 -27 26 0 53 5 60 12 9 9 12 7 12 -10 0 -57 -116 -57 -161 1 -18 23 -39 16 -39 -14 0 -12 -7 -19 -20 -19 -19 0 -20 7 -20 170 0 163 1 170 20 170 18 0 20 -7 20 -87z m912 -83 c32 -91 58 -166 58 -167 0 -2 -9 -3 -19 -3 -19 0 -34 34 -95 215 -13 40 -29 70 -36 70 -8 0 -31 -54 -60 -140 -39 -118 -50 -140 -68 -143 -21 -3 -19 5 33 155 31 87 57 164 60 171 3 8 17 12 37 10 31 -3 32 -4 90 -168z m-442 -280 c0 -23 -4 -30 -20 -30 -16 0 -20 7 -20 30 0 23 4 30 20 30 16 0 20 -7 20 -30z"/>
 </g>

</svg>