<!DOCTYPE svg PUBLIC "-//W3C//DTD SVG 20010904//EN" "http://www.w3.org/TR/2001/REC-SVG-20010904/DTD/svg10.dtd">
<svg version="1.0" xmlns="http://www.w3.org/2000/svg" width="245px" height="80px" viewBox="0 0 2450 800" preserveAspectRatio="xMidYMid meet">
<g id="layer1" fill="#ffffff" stroke="none">
 <path d="M0 400 l0 -400 1225 0 1225 0 0 400 0 400 -1225 0 -1225 0 0 -400z m350 280 c0 -26 -4 -30 -27 -30 -51 0 -58 -12 -63 -116 -5 -84 -9 -99 -28 -115 l-22 -18 25 -25 c23 -23 25 -33 25 -105 0 -90 12 -111 61 -111 26 0 29 -3 29 -31 l0 -32 -65 5 c-36 3 -72 11 -80 18 -22 18 -35 76 -35 152 0 58 -3 69 -22 82 -12 9 -33 16 -45 16 -19 0 -23 5 -23 30 0 25 4 30 23 30 12 0 32 7 44 15 18 12 21 27 25 108 6 136 20 152 131 156 46 1 47 0 47 -29z m1875 16 c39 -17 42 -26 48 -145 3 -73 7 -87 27 -103 12 -10 33 -18 46 -18 20 0 24 -5 24 -30 0 -26 -4 -30 -28 -30 -48 0 -66 -31 -70 -118 -1 -43 -5 -87 -8 -100 -6 -30 -58 -52 -124 -52 -49 0 -50 1 -50 30 0 28 3 30 34 30 55 0 66 19 66 111 0 71 3 82 25 104 l24 25 -24 25 c-23 22 -25 32 -25 109 0 97 -11 116 -66 116 -31 0 -34 3 -34 30 0 29 1 30 50 30 28 0 66 -6 85 -14z m-1487 -163 l-3 -68 -55 0 -55 0 -3 68 -3 67 61 0 61 0 -3 -67z m540 0 l-3 -68 -52 -3 -53 -3 0 70 0 71 55 0 56 0 -3 -67z m542 -3 l0 -70 -55 0 -55 0 0 70 0 70 55 0 55 0 0 -70z"/>
 </g>
<g id="layer2" fill="#cb4c17" stroke="none">
 <path d="M622 533 l3 -68 55 0 55 0 3 68 3 67 -61 0 -61 0 3 -67z"/>
 <path d="M1170 529 l0 -70 53 3 52 3 3 68 3 67 -56 0 -55 0 0 -71z"/>
 <path d="M1710 530 l0 -70 55 0 55 0 0 70 0 70 -55 0 -55 0 0 -70z"/>
 </g>
<g id="layer3" fill="#020202" stroke="none">
 <path d="M232 703 c-40 -8 -56 -47 -60 -150 -4 -81 -7 -96 -25 -108 -12 -8 -32 -15 -44 -15 -19 0 -23 -5 -23 -30 0 -25 4 -30 23 -30 12 0 33 -7 45 -16 19 -13 22 -24 22 -82 0 -76 13 -134 35 -152 8 -7 44 -15 80 -18 l65 -5 0 32 c0 28 -3 31 -29 31 -49 0 -61 21 -61 111 0 72 -2 82 -25 105 l-25 25 22 18 c19 16 23 31 28 115 5 104 12 116 63 116 23 0 27 4 27 30 0 29 -1 30 -47 29 -27 -1 -58 -4 -71 -6z"/>
 <path d="M2090 680 c0 -27 3 -30 34 -30 55 0 66 -19 66 -116 0 -77 2 -87 25 -109 l24 -25 -24 -25 c-22 -22 -25 -33 -25 -104 0 -92 -11 -111 -66 -111 -31 0 -34 -2 -34 -30 0 -29 1 -30 50 -30 66 0 118 22 124 52 3 13 7 57 8 100 4 87 22 118 70 118 24 0 28 4 28 30 0 25 -4 30 -24 30 -13 0 -34 8 -46 18 -20 16 -24 30 -27 103 -2 46 -6 94 -9 107 -6 30 -58 52 -124 52 -49 0 -50 -1 -50 -30z"/>
 </g>

</svg>